<?xml version="1.0" standalone="no"?><!DOCTYPE svg PUBLIC "-//W3C//DTD SVG 1.1//EN" "http://www.w3.org/Graphics/SVG/1.1/DTD/svg11.dtd"><svg class="icon" width="16px" height="16.00px" viewBox="0 0 1024 1024" version="1.1" xmlns="http://www.w3.org/2000/svg"><path fill="#f4ea2a" d="M881.1 838.7L682.3 614.6c37.2-51.2 57.3-112.6 57.3-177.1 0-80.7-31.4-156.6-88.5-213.6s-132.9-88.5-213.6-88.5c-80.7 0-156.6 31.4-213.6 88.5s-88.5 132.9-88.5 213.6c0 80.7 31.4 156.6 88.5 213.6s132.9 88.5 213.6 88.5c76.5 0 148.7-28.3 204.7-79.9l194 218.8c5.9 6.7 14.2 10.1 22.5 10.1 7.1 0 14.2-2.5 19.9-7.6 12.3-10.9 13.5-29.9 2.5-42.3zM437.5 679.6C304 679.6 195.4 571 195.4 437.5S304 195.4 437.5 195.4 679.6 304 679.6 437.5 571 679.6 437.5 679.6z" /></svg>