<?xml version="1.0" standalone="no"?><!DOCTYPE svg PUBLIC "-//W3C//DTD SVG 1.1//EN" "http://www.w3.org/Graphics/SVG/1.1/DTD/svg11.dtd"><svg class="icon" width="16px" height="16.00px" viewBox="0 0 1024 1024" version="1.1" xmlns="http://www.w3.org/2000/svg"><path fill="#f4ea2a" d="M762.56 663.39l-158.32-0.01c-14.55 0-26.35-11.8-26.35-26.35s11.8-26.35 26.35-26.35h157.54c79.78 0 144.68-58.35 145.51-130.09 0.4-34.27-13.87-66.94-40.19-92-27.54-26.24-64.42-40.78-103.86-40.93-9.35 0.13-17.87 0.67-26.54 2.1-19.55 3.11-38.42-6.94-45.83-24.65-30.72-73.33-109.12-122.6-195.09-122.6-69.62 0-134.44 31.56-173.39 84.45-19.61 26.62-31.58 57.57-34.6 89.48-1.02 10.77-6.3 20.51-14.87 27.42-8.8 7.1-20.36 10.4-31.67 9.02-4.14-0.5-8.32-0.78-12.56-0.85-61.25-1.12-110.6 41.58-111.96 97.06-0.61 25.05 9.13 49.18 27.45 67.94 20.88 21.4 50.91 33.67 82.39 33.67l193.19-0.01c14.55 0 26.35 11.8 26.35 26.35s-11.8 26.35-26.35 26.35l-193.19 0.01c-45.6 0-89.38-18.07-120.11-49.57-28.32-29.02-43.38-66.68-42.42-106.04 2.03-83.41 75.8-150.13 165.57-148.48 2.39 0.05 4.78 0.14 7.15 0.27 5.53-37.17 20.34-72.87 43.19-103.89 48.85-66.32 129.53-105.9 215.83-105.9 105.45 0 198.7 57.33 240.12 146.82 9.09-1.15 18.3-1.6 27.57-1.66 52.94 0.22 102.66 19.92 139.99 55.47 37.02 35.28 57.09 81.72 56.53 130.77-1.16 100.47-89.72 182.2-197.43 182.2z"  /><path fill="#f4ea2a" d="M643.76 578.87c-6.74 0-13.49-2.57-18.63-7.72L512 458.03 398.87 571.15c-10.29 10.29-26.98 10.29-37.26 0-10.29-10.29-10.29-26.97 0-37.26l122.45-122.44c14.93-14.94 40.99-14.93 55.91 0.01L662.4 533.88c10.29 10.29 10.29 26.97 0 37.26a26.258 26.258 0 0 1-18.64 7.73z"  /><path fill="#f4ea2a" d="M512 874.22c-14.55 0-26.35-11.8-26.35-26.35V426.22c0-14.55 11.8-26.35 26.35-26.35s26.35 11.8 26.35 26.35v421.65c0 14.55-11.8 26.35-26.35 26.35z"  /></svg>