<?xml version="1.0" standalone="no"?><!DOCTYPE svg PUBLIC "-//W3C//DTD SVG 1.1//EN" "http://www.w3.org/Graphics/SVG/1.1/DTD/svg11.dtd"><svg class="icon" width="16px" height="16.00px" viewBox="0 0 1024 1024" version="1.1" xmlns="http://www.w3.org/2000/svg"><path fill="#f4ea2a" d="M354.33054 14.884492c31.83689-13.19257 67.201382-17.173564 101.294168-12.694946 35.652009 4.744017 69.91067 19.750151 97.357409 43.027905 32.201814 26.982289 54.760778 65.133477 63.098747 106.303586 5.064708 22.459438 4.522851 45.648726 3.372786 68.495205-1.680864 29.348769-6.071015 58.874471-16.565356 86.464968-7.696587 20.900216-19.62851 39.942635-33.241296 57.470064-2.289071 2.764579-3.881469 6.004665-4.965184 9.421685-3.229028 9.664968-8.315853 18.589028-11.489589 28.276112-2.786695 8.481728-1.913089 17.560605-0.962074 26.274558 3.129503 22.558963 10.251058 44.299611 18.102462 65.597926 11.777106 30.72 25.566825 60.743326 42.231707 89.130022-122.526134 0.154816-245.052268 0.055292-367.578402 0.055291 20.54635-42.375464 42.242765-84.673521 55.026177-130.211663 4.633434-17.416847 8.216328-35.84 4.622376-53.798704-1.96838-10.007775-7.563888-18.677495-12.263672-27.557322-2.864104-5.407516-7.010972-9.952484-10.472224-14.9619-11.600173-15.857624-21.46419-33.075421-28.121296-51.5981-13.081987-35.795767-16.554298-74.300821-16.565357-112.164492-0.287516-36.967948 10.162592-74.068596 30.277668-105.131404 20.54635-32.345572 51.443283-57.834989 86.84095-72.398791m1.028423 48.568121c-25.4673 14.17676-46.367516 36.348683-59.029287 62.590065-10.217883 20.900216-15.183067 44.24432-14.884492 67.47784-0.011058 26.285616 1.96838 52.759222 8.459611 78.303931 4.876717 19.274644 13.203629 37.664622 24.660043 53.920346 5.860907 8.824536 13.303153 16.631706 17.792829 26.329849 6.458056 11.600173 12.750238 23.554212 15.371059 36.702548 5.794557 26.285616 1.083715 53.478013-6.082074 79.000605-6.95568 24.217711-16.432657 47.617106-26.595248 70.651577 75.251836 0.143758 150.492613 0.044233 225.744449 0.044233-10.206825-23.874903-19.573218-48.203197-26.119741-73.360864-5.164233-20.723283-9.432743-42.264881-6.712397-63.67378 2.344363-17.958704 12.584363-33.373996 17.693304-50.481209 1.559222-5.2527 5.606566-9.12311 8.66972-13.491145 9.797667-12.838704 18.788078-26.429374 25.013909-41.391274 10.980907-26.130799 14.884492-54.605961 16.167257-82.727257 0.597149-15.769158 1.150065-31.715248-1.658747-47.318532-4.832484-28.88432-18.434212-56.286825-38.936329-77.25339-21.431015-22.260389-50.271102-37.200173-80.780993-42.032657-33.528812-5.739266-69.081296-0.011058-98.772873 16.709114zM755.835853 566.937711c43.481296-4.622376 88.256415 3.273261 127.303326 23.045529 54.827127 27.347214 97.667041 77.607257 115.769504 136.161036 15.968207 51.056242 13.491145 107.752225-7.375897 157.050195-15.879741 37.985313-42.331231 71.425659-75.473002 95.831361-36.182808 26.772181-80.449244 42.430756-125.423413 44.266436-27.988596 1.194298-56.231533-2.587646-82.804665-11.522765-31.372441-10.427991-60.367343-27.844838-84.408121-50.525443-26.219266-24.671102-46.522333-55.60121-58.642246-89.517062-15.603283-43.569762-17.549546-91.905659-5.518099-136.592311 10.3727-38.748337 31.195508-74.665745 59.759136-102.842333 36.392916-36.525616 85.536069-59.969244 136.813477-65.354643m-2.698229 44.974168c-39.146436 5.739266-76.147559 24.637927-103.914989 52.792397-25.588942 25.710583-43.337538 59.117754-50.182635 94.747646-8.92406 45.305918 0.033175 93.851922 24.704276 132.909892 4.33486 6.601814 8.503844 13.45797 14.154644 19.042419-5.175292 5.440691-7.541771 13.535378-5.551274 20.844925 1.780389 8.183153 8.581253 14.939784 16.742289 16.742289 7.608121 2.090022 15.968207-0.652441 21.508424-6.093132 36.746782 27.855896 84.363888 40.407084 130.112138 35.32026 41.291749-4.500734 80.858402-23.521037 110.107646-53.024623 29.017019-28.718445 48.04838-67.400432 52.847689-107.962332 4.821425-37.443456-2.477063-76.291317-20.336242-109.532614-17.306263-32.456156-44.553952-59.515853-77.120692-76.589892-34.358186-18.290454-74.610454-24.947559-113.071274-19.197235zM46.046825 688.568121c20.203542-19.009244 47.926739-29.337711 75.572527-29.238186 143.890799-0.077408 287.792657 0.06635 431.683456-0.06635-5.462808 10.837149-11.600173 21.364665-16.123024 32.677322-19.42946 45.8146-25.257192 97.191533-17.018747 146.24622 6.579698 39.168553 22.149806 76.811058 45.294859 109.090281 10.549633 15.039309 23.034471 28.585745 36.282333 41.280691-159.295032 0.342808-318.590065 0.044233-477.885097 0.154817-28.453045 0.597149-57.215724-9.764492-77.98324-29.404061-14.840259-13.966652-25.456242-32.522505-29.238186-52.604406C14.486393 896.541857 15.061425 886.113866 14.995076 875.818575v-106.159828c0.033175-7.033089-0.19905-14.088294 0.508682-21.088207 2.543413-22.824363 13.811836-44.365961 30.543067-60.002419m28.48622 33.993261c-9.410626 9.499093-15.348942 22.592138-15.304708 36.061167-0.011058 43.481296 0.011058 86.97365-0.011058 130.454946-0.055292 10.30635 3.306436 20.513175 9.167343 28.961727 10.704449 15.525875 28.994903 24.859093 47.617106 26.208208 8.879827 0.530799 17.770713 0.19905 26.65054 0.287516 122.857883-0.077408 245.715767 0.165875 368.562592-0.110583-8.260562-15.990324-16.134082-32.257106-21.851231-49.36432-15.216242-43.591879-20.336242-90.622894-14.961901-136.481728 1.83568-18.688553 6.546523-36.923715 11.268423-55.048293-121.342894 0.044233-242.696847 0-364.039741 0.022116-17.339438-0.033175-34.900043 6.513348-47.097365 19.009244zM683.746695 704.757495c24.339352-26.119741 59.106695-42.242765 94.802938-43.735638 38.040605-2.045788 76.501425 12.551188 103.715939 39.179612 26.351965 25.423067 42.132181 61.539525 42.286998 98.219956 0.641382 33.318704-11.323715 66.681641-33.009071 91.994126-20.822808 24.704276-50.48121 41.81149-82.362333 47.207948-36.050108 6.43594-74.577279-2.10108-104.335205-23.49892-1.404406-0.939957-3.405961-2.609762-4.766134-0.652441-9.930367 9.698143-19.617451 19.661685-29.481468 29.426177-5.540216 5.440691-13.900302 8.183153-21.508424 6.093132-8.161037-1.802505-14.961901-8.559136-16.742289-16.742289-1.990497-7.309546 0.375983-15.404233 5.551274-20.844925 10.593866-10.925616 21.508423-21.552657 32.223931-32.35663-13.303153-19.683801-21.751706-42.674039-23.753261-66.383067-3.693477-39.113261 10.24-79.487171 37.377105-107.907041m82.649849 2.200604c-18.080346 3.627127-35.032743 12.694946-48.092613 25.721642-14.50851 14.30946-24.306177 33.373996-27.203456 53.566479-3.162678 20.656933 0.774082 42.331231 11.124665 60.500043 19.197235-18.655378 37.819438-37.885788 56.928208-56.629632 6.690281-6.458056 17.472138-8.00622 25.721641-3.693478 8.094687 3.903585 13.19257 13.048812 12.40743 21.99499-0.364924 5.3854-2.830929 10.5054-6.590756 14.331576-18.987127 19.219352-38.317063 38.095896-57.193607 57.414773 28.077063 18.611145 66.172959 20.391533 95.842419 4.445443 30.377192-15.669633 50.890367-48.645529 50.989892-82.90419 1.061598-35.331317-19.904968-69.888553-51.299525-85.900993-19.042419-10.018834-41.557149-13.081987-62.634298-8.846653z" /></svg>