<?xml version="1.0" standalone="no"?><!DOCTYPE svg PUBLIC "-//W3C//DTD SVG 1.1//EN" "http://www.w3.org/Graphics/SVG/1.1/DTD/svg11.dtd"><svg class="icon" width="16px" height="16.00px" viewBox="0 0 1024 1024" version="1.1" xmlns="http://www.w3.org/2000/svg"><path fill="#000000" d="M512 11.309176C232.794353 11.309176 5.647059 238.456471 5.647059 517.662118S232.794353 1024.015059 512 1024.015059s506.352941-227.147294 506.352941-506.352941S791.205647 11.309176 512 11.309176z m0 982.588236c-262.595765 0-476.235294-213.639529-476.235294-476.235294S249.404235 41.426824 512 41.426824s476.235294 213.639529 476.235294 476.235294S774.595765 993.897412 512 993.897412zM468.886588 515.764706h95.87953c65.189647 0 122.383059-60.250353 122.383058-128.948706 0-65.310118-56.606118-121.916235-126.750117-126.192941l-39.424-0.873412H357.647059a15.058824 15.058824 0 0 0-15.058824 15.058824v481.882353a15.058824 15.058824 0 1 0 30.117647 0v-466.82353h147.922824l38.505412 0.843294c47.284706 2.891294 97.897412 42.209882 97.897411 96.105412 0 52.645647-43.113412 98.831059-92.702117 98.831059H432.941176a14.998588 14.998588 0 1 0-5.330823 29.04847l234.646588 229.586824a15.013647 15.013647 0 0 0 21.293177-0.240941 15.058824 15.058824 0 0 0-0.240942-21.293177L468.886588 515.764706z" /></svg>