<?xml version="1.0" standalone="no"?><!DOCTYPE svg PUBLIC "-//W3C//DTD SVG 1.1//EN" "http://www.w3.org/Graphics/SVG/1.1/DTD/svg11.dtd"><svg class="icon" width="16px" height="16.00px" viewBox="0 0 1024 1024" version="1.1" xmlns="http://www.w3.org/2000/svg"><path fill="#666666" d="M842.5 257.7c-73.4-70.4-181-60.6-181-60.6-13.2 0.3-24 11.2-24 24.6v11.9c0 13.3 10.7 23.5 24.3 23.2 0 0 103.3-11 147.4 53.2 44 64.2 25 144.7 25 144.7-2 13.1 7.1 23.8 20.6 23.8H865c13.4 0 25.7-10.6 27.2-23.9 0 0.1 23.7-126.4-49.7-196.9z"  /><path fill="#666666" d="M757.2 450.1h14.5c8.9 0 17.5-7 18.9-15.9 0 0 17.1-66.7-22.9-103.3-40-36.6-92.3-23.2-92.3-23.2-8.8 1.3-15.9 9.7-15.9 18.5v6.3c0 8.9 7.1 15.5 16.3 15.3 0 0 43.9-6 65.2 19.8 21.3 25.7 4.6 67.4 4.6 67.4-2.4 8.3 2.8 15.1 11.6 15.1z"  /><path fill="#666666" d="M683.8 490.7c0-6.8 64.4-67.7 0-105.7-64.4-37.9-182.3 19.7-178.7 13.5C555.8 310 483.4 282 446.4 282c-88 0-318.2 196.1-318.2 320.3s153.7 224.9 343.2 224.9c189.6 0 341.8-100.7 341.8-224.9 0-104.8-129.4-104.8-129.4-111.6zM480.7 758.4c-121.1 17-228.4-34-239.6-113.9-11.2-80 77.8-158.6 198.9-175.6 121.1-17 228.4 34 239.6 113.9 11.3 80-77.8 158.6-198.9 175.6z"  /><path fill="#666666" d="M415.4 515.9c-72 14-120.8 74.8-109 135.7 11.9 61 79.9 99 151.9 85s120.8-74.8 109-135.7c-11.9-60.9-79.9-99-151.9-85z m-5.9 160.3c-22.2 10.3-46.5 5-54.4-11.9-7.9-16.9 3.7-39 25.9-49.3 22.2-10.3 46.5-5 54.4 11.9 7.9 16.9-3.7 39-25.9 49.3z m50.8-51.3c-12.2 0-22.1-10.1-22.1-22.5s9.9-22.5 22.1-22.5c12.2 0 22.2 10.1 22.2 22.5 0 12.5-9.9 22.5-22.2 22.5z"  /></svg>