<?xml version="1.0" standalone="no"?><!DOCTYPE svg PUBLIC "-//W3C//DTD SVG 1.1//EN" "http://www.w3.org/Graphics/SVG/1.1/DTD/svg11.dtd"><svg class="icon" width="16px" height="13.84px" viewBox="0 0 1184 1024" version="1.1" xmlns="http://www.w3.org/2000/svg"><path fill="#666666" d="M526.55711171 817.5203706h-10.38310085C346.75860931 811.08021958 242.1390128 738.52994652 229.25871077 617.34996204c-1.31431642-7.75446742-11.43455398-84.51055361 49.02400694-168.62681171 0-0.78858984 74.91604262-110.66545258 198.59322885-155.08935147a179.14134419 179.14134419 0 0 1 59.27567553-11.82884889 77.01894888 77.01894888 0 0 1 71.10452502 38.37804278 115.13412839 115.13412839 0 0 1 13.14316531 54.6755681 228.95394096 228.95394096 0 0 1 74.12745278-15.11463993 89.24209269 89.24209269 0 0 1 67.16157459 25.49774077c22.60624466 23.52626615 26.28633062 59.01281225 8.67448951 98.70517204 27.2063521 14.58891336 65.71582714 41.13810787 81.75048854 82.14478349a114.34553854 114.34553854 0 0 1-3.5486549 93.57933744c-46.65823679 103.43671174-188.21012802 157.71798429-303.86998297 157.71798429h-18.13756826z m9.59451038-509.42908941a154.03789835 154.03789835 0 0 0-50.33832333 10.38310024c-115.65985495 41.40097114-185.18720027 144.57481898-185.84435789 145.23197718-55.59558958 77.15038052-45.21248873 147.20345242-44.68676276 150.22638016 11.56598561 109.08827229 105.14532307 171.91260274 261.81185424 177.30130121H545.22040653c107.24822932 0 237.89129315-48.89257528 279.9494225-142.34048109a87.92777628 87.92777628 0 0 0 3.15435939-72.81313635c-16.56038858-40.48094905-61.64144567-65.71582714-80.3047405-74.12745217l-12.35457546-6.30871937 6.17728773-12.09171219c10.38310084-19.8461796 24.18342436-56.77847436 1.44574805-80.43617213a64.00721521 64.00721521 0 0 0-48.23541648-17.48041007 226.98246575 226.98246575 0 0 0-83.85339541 21.16049603l-2.76006446 1.31431699h-17.08611514v-14.4574823l0.65715821-2.4972012c0.78858984-3.68008656 1.70861134-7.88589907 2.49720178-12.09171218V377.35576263a90.29354583 90.29354583 0 0 0-10.25166921-44.42389889 50.8640499 50.8640499 0 0 0-48.10398544-24.84058255z m81.09333036 90.55640908zM592.14150659 390.49892794z m-89.11066104 335.67644311h-5.38869788a172.56976153 172.56976153 0 0 1-93.84220075-23.92056047 110.40258931 110.40258931 0 0 1-53.62411436-80.83046706A115.5284233 115.5284233 0 0 1 393.28541445 521.93058162a208.31917091 208.31917091 0 0 1 108.1682514-49.5497335 195.70173217 195.70173217 0 0 1 24.05199272-1.97147522 193.46739426 193.46739426 0 0 1 99.62519354 23.26340289 115.79128718 115.79128718 0 0 1 54.67556748 82.9333733 120.12853135 120.12853135 0 0 1-41.00667562 101.59666875 205.16481153 205.16481153 0 0 1-110.4025893 46.92110009 221.7251995 221.7251995 0 0 1-25.36630913 1.05145312z m22.47481302-229.87396185a157.71798429 157.71798429 0 0 0-20.63477004 1.84004298 181.63854536 181.63854536 0 0 0-94.23649567 43.10958247 90.68784134 90.68784134 0 0 0-34.43509296 77.28181216A83.98482645 83.98482645 0 0 0 417.99456537 679.64856591a144.57481898 144.57481898 0 0 0 79.77901394 19.71474796h5.25726623c7.49160414 0 15.64036709 0 21.94908647-1.18288477a177.16986898 177.16986898 0 0 0 95.81367534-39.56092757 94.10506402 94.10506402 0 0 0 32.85791326-78.85899243 88.84779776 88.84779776 0 0 0-42.18956097-63.6129203 164.94672517 164.94672517 0 0 0-85.95630107-19.8461796z m-42.84671919 173.48978243h-1.5771803a59.53853941 59.53853941 0 0 1-53.88697764-90.5564091A70.18450294 70.18450294 0 0 1 471.22438541 548.21691223a78.85899245 78.85899245 0 0 1 16.69182021-2.10290626 59.53853941 59.53853941 0 0 1 50.33832334 95.55081208 69.92163965 69.92163965 0 0 1-40.61238129 26.28633061 63.48148865 63.48148865 0 0 1-14.98320829 1.84004298z m3.68008596-97.91658162a39.42949593 39.42949593 0 0 0-8.93735221 1.18288478 44.42389889 44.42389889 0 0 0-27.73207927 19.71474797 33.64650312 33.64650312 0 0 0-4.20581251 24.44628763 34.56652521 34.56652521 0 0 0 35.61797773 26.28633063h1.5771803a35.74940997 35.74940997 0 0 0 8.9373522-1.31431641A44.29246725 44.29246725 0 0 0 516.96260071 625.63015602a34.43509357 34.43509357 0 0 0 6.440151-27.60064702 35.22368341 35.22368341 0 0 0-36.93229473-26.28633063zM817.6782243 431.76846684a13.14316529 13.14316529 0 0 1-4.4686758-0.78858985A13.14316529 13.14316529 0 0 1 806.11223867 414.15662573a69.00161816 69.00161816 0 0 0-9.46307876-61.51001402A64.00721521 64.00721521 0 0 0 727.25324683 333.58902194a13.14316529 13.14316529 0 1 1-8.28019398-24.9720142 90.16211417 90.16211417 0 0 1 97.91658159 27.46921539 94.10506402 94.10506402 0 0 1 13.14316532 87.13918643 13.14316529 13.14316529 0 0 1-12.35457547 8.54305728z"  /><path fill="#666666" d="M909.15465548 484.73542359a13.14316529 13.14316529 0 0 1-4.46867638-0.78858985 13.14316529 13.14316529 0 0 1-7.88589908-16.82325185 187.81583309 187.81583309 0 0 0 11.69741726-68.73875488A173.48978302 173.48978302 0 0 0 858.68490052 275.23336732c-63.74435192-61.24715075-156.40366789-39.42949593-160.21518608-37.72088459a13.14316529 13.14316529 0 0 1-16.03466143-9.59451041 13.14316529 13.14316529 0 0 1 9.8573737-15.90323037c4.60010805-1.18288477 110.79688423-27.07492045 185.05576863 44.29246725a200.30184021 200.30184021 0 0 1 57.43563256 141.55189123 214.49645863 214.49645863 0 0 1-13.14316532 78.85899245 13.14316529 13.14316529 0 0 1-12.4860071 8.0173307z"  /></svg>